<svg version="1.1" id="Capa_1" xmlns="http://www.w3.org/2000/svg" xmlns:xlink="http://www.w3.org/1999/xlink" x="0px" y="0px"
	 viewBox="0 0 1561 585" style="enable-background:new 0 0 1561 585;" xml:space="preserve">
<style type="text/css">
	.st0{fill:#FFFFFF;}
	.st1{fill:#DFF75C;}
	.st2{fill:#10E2FF;}
	.st3{fill:#C400E1;}
</style>
<g>
	<path class="st0" d="M189.7,169.2c-0.3,0.1-0.3,0.5,0.1,0.6l97.3,9c0,0,9.2,0,7.3,11l-3.2,14.2c-0.3,1.1,0.6,2.2,1.8,2.2h152.6
		c1.6,0,3.2-0.7,4.4-1.9l37.1-38.8c1.2-1.2,0.3-3.3-1.4-3.3h-184C301.7,162.3,215.5,162.3,189.7,169.2z"/>
	<path class="st0" d="M144.9,218.9l193.6-5.8l-7.6,22.3h119.6c3,0,4.5,3.6,2.5,5.7l-33.1,35.1c-1.9,2-4.4,3.1-7.1,3
		c-19.2-0.3-96.7-1.5-96.6,0.1c0.1,1.8-9,29.3-9,29.3h128.2c2.9,0,4.3,3.5,2.3,5.5l-34.5,34.1c-1.6,1.6-3.9,2.5-6.2,2.5H246.1
		c-3.3,0-5.5-3.3-4.4-6.3l6.6-17.4c1-2.8-0.9-5.7-3.8-6l-106.1-8c-0.8-0.1-0.8-1.2,0-1.2l111.5-7.3c3.4-0.2,6.4-2.5,7.5-5.8l5.6-17
		c1-3-1.1-6.1-4.3-6.3l-171-10.3c-0.4,0-0.4-0.6,0-0.6l179.4-8.6c3.1-0.1,5.7-2.3,6.6-5.2l4-14c1-3.5-1.4-6.9-5-7.2l-127.9-10.2
		C144.7,219.2,144.8,218.9,144.9,218.9z"/>
	<path class="st0" d="M485.8,235.5h42.9c2.2,0,3.7,2.1,3.1,4.2l-20.2,64.9c-0.6,2.1,0.9,4.1,3.1,4.1h63.1c0,0,62.5-9.2,64.3-69.6
		c0,0,1.2-27.5-33.2-32.9H497.3c-2.7,0-4.7-2.7-3.8-5.3l12.2-35.4c0.7-2,2.5-3.3,4.6-3.3H626c0,0,67.4,1.8,69.2,62.2v8.4
		c0,6.6-1,13.1-3,19.4c-8.8,27.1-38.9,95.9-119.6,100.3H447.1c-2.2,0-3.7-2.1-3-4.2L482,238.3C482.5,236.6,484.1,235.5,485.8,235.5z
		"/>
	<path class="st0" d="M709.4,255.1L679.2,344c-1.6,4.7,1.9,9.6,6.8,9.6h33.9c4.9,0,9.3-3.1,10.9-7.8l17.6-51.7h36.6l31.4,51.2
		c2.8,4.6,7.8,7.4,13.2,7.4h41.7c5.1,0,8.3-5.6,5.6-10l-33.3-54c0,0,71.4-18.3,67.7-80.5c0,0-0.3-45.8-50.5-45.8H733.1
		c-6.2,0-10.5,6.2-8.2,12l9,22.9c2.1,5.4,7.3,9,13.2,9.1l94.7,1.7c0,0,18.3,0,16.5,14.6c-1.8,14.6-11,23.8-36.6,25.6
		c-21.1,1.5-81.8,0.5-102.7,0.1C714.6,248.4,710.8,251,709.4,255.1z"/>
	<path class="st0" d="M952.4,167.3c-9.4,26.7-53,152-62.9,180.5c-1,2.8,1.1,5.8,4.1,5.8h41.7c3,0,5.6-1.9,6.6-4.7l60.7-179.2
		c1.2-3.6-1.5-7.4-5.3-7.4h-37.8C956.3,162.3,953.5,164.3,952.4,167.3z"/>
	<path class="st0" d="M970,350.8h35.2c4.5,0,8.5-2.9,10-7.1l34.7-101.4c0.9-2.8,4.7-3.2,6.2-0.8l67.5,105.4
		c2.3,3.6,6.2,5.7,10.4,5.7h28.3c0,0,10.7-5.5,14.4-18.3c3.2-11,45.1-130.9,56.6-163.8c1.4-4.1-1.6-8.3-5.9-8.3h-35
		c-4.6,0-8.7,2.9-10.2,7.3l-36.6,108l-69.1-104.4c-3.7-5.7-10.1-9.1-16.9-9.1h-22.1c0,0-12.8-3.7-18.3,14.6
		c-4.7,15.7-44.2,130.4-55.5,163.3C962.2,346.3,965.4,350.8,970,350.8z"/>
	<path class="st0" d="M1254.7,169.3L1195.5,343c-1.6,4.7,1.9,9.6,6.9,9.6h36c4,0,7.6-2.6,8.8-6.4l18.2-56.2c1.3-4,6.4-5.3,9.4-2.3
		l60.9,60.9c2.4,2.4,5.7,3.7,9,3.7h59.1c3.7,0,5.6-4.4,3-7.1c-20.5-21.2-80-82.7-80-84.2c0-1.6,105.2-75.1,132.6-94.3
		c2-1.4,1-4.5-1.4-4.5h-65.6c-0.3,0-88.1,65.5-108.9,81c-1.3,1-3.1-0.3-2.6-1.9l24.4-70.5c1.4-4.2-1.7-8.6-6.1-8.6h-34.7
		C1260.1,162.3,1256.1,165.1,1254.7,169.3z"/>
	<g>
		<g>
			<path class="st0" d="M413.1,436.2c-3.1,0-5.7-0.5-7.9-1.6c-2.2-1.1-3.9-2.6-5-4.5c-1.2-1.9-1.7-4.2-1.7-6.8
				c0-2.5,0.4-4.9,1.3-7.2s2.1-4.2,3.8-5.9c1.7-1.7,3.6-3,5.9-4c2.3-1,4.9-1.4,7.8-1.4c2.5,0,4.8,0.4,6.8,1.2c2,0.8,3.5,2,4.5,3.6
				l-3.2,2.7c-0.9-1.2-2.1-2.1-3.5-2.7c-1.4-0.6-3.1-0.9-5-0.9c-2.2,0-4.2,0.4-5.9,1.1c-1.7,0.7-3.2,1.8-4.5,3.1
				c-1.2,1.3-2.2,2.9-2.8,4.6c-0.6,1.7-1,3.6-1,5.5c0,1.8,0.4,3.5,1.2,4.9s2,2.5,3.6,3.3c1.6,0.8,3.5,1.2,5.8,1.2
				c1.9,0,3.6-0.3,5.2-0.9c1.6-0.6,3-1.5,4.2-2.7l2.5,2.9c-1.4,1.6-3.2,2.7-5.3,3.5C417.9,435.8,415.6,436.2,413.1,436.2z"/>
			<path class="st0" d="M453.4,435.8l6.2-30.8h4.4l-5.4,26.9h16.7l-0.7,3.8H453.4z"/>
			<path class="st0" d="M503.1,435.8l6.2-30.8h4.4l-6.2,30.8H503.1z"/>
			<path class="st0" d="M555.3,436.2c-3.1,0-5.7-0.5-7.9-1.6c-2.2-1.1-3.9-2.6-5-4.5c-1.2-1.9-1.7-4.2-1.7-6.8
				c0-2.5,0.4-4.9,1.3-7.2s2.1-4.2,3.8-5.9c1.7-1.7,3.6-3,5.9-4c2.3-1,4.9-1.4,7.8-1.4c2.5,0,4.8,0.4,6.8,1.2c2,0.8,3.5,2,4.5,3.6
				l-3.2,2.7c-0.9-1.2-2.1-2.1-3.5-2.7c-1.4-0.6-3.1-0.9-5-0.9c-2.2,0-4.2,0.4-5.9,1.1c-1.7,0.7-3.2,1.8-4.5,3.1
				c-1.2,1.3-2.2,2.9-2.8,4.6c-0.6,1.7-1,3.6-1,5.5c0,1.8,0.4,3.5,1.2,4.9s2,2.5,3.6,3.3c1.6,0.8,3.5,1.2,5.8,1.2
				c1.9,0,3.6-0.3,5.2-0.9c1.6-0.6,3-1.5,4.2-2.7l2.5,2.9c-1.4,1.6-3.2,2.7-5.3,3.5C560.1,435.8,557.8,436.2,555.3,436.2z"/>
			<path class="st0" d="M595.7,435.8l6.2-30.8h4.4l-6.2,30.8H595.7z M601.2,428.2l0.6-5.3l20.7-17.9h5.7l-16.6,14.3l-2.7,2.2
				L601.2,428.2z M617.8,435.8l-10-14.7l2.9-2.9l12,17.6H617.8z"/>
			<path class="st0" d="M681.6,435.8l20.1-30.8h4.3l7.8,30.8h-4.3l-6.9-28.4h1.8l-18.1,28.4H681.6z M689.1,428.1l1.9-3.5h17.3
				l0.6,3.5H689.1z"/>
			<path class="st0" d="M742,435.8l6.2-30.8h3.6l14.8,25.4l-1.3-0.2l5-25.2h4.4l-6.2,30.8h-3.6l-14.8-25.4l1.3,0.2l-5,25.2H742z"/>
			<path class="st0" d="M801.3,435.8l6.2-30.8h12c3.1,0,5.8,0.5,8,1.6c2.2,1,3.9,2.5,5,4.4c1.2,1.9,1.7,4.1,1.7,6.7
				c0,2.7-0.5,5.2-1.4,7.4c-0.9,2.2-2.2,4.2-3.9,5.8c-1.7,1.6-3.7,2.8-6,3.7c-2.3,0.9-5,1.3-7.9,1.3H801.3z M806.4,432h8.7
				c3,0,5.7-0.6,7.8-1.8c2.2-1.2,3.8-2.9,5-5c1.2-2.1,1.8-4.5,1.8-7.2c0-1.8-0.4-3.4-1.2-4.8c-0.8-1.4-2-2.4-3.6-3.1
				c-1.6-0.7-3.6-1.1-6-1.1h-8L806.4,432z"/>
			<path class="st0" d="M896.6,435.8l6.2-30.8h13.6c3.1,0,5.5,0.6,7.2,1.7c1.7,1.1,2.5,2.8,2.5,5.1c0,1.9-0.5,3.6-1.4,4.9
				c-1,1.3-2.2,2.3-3.7,3c-1.5,0.7-3.1,1-4.8,1l1-1.3c2.3,0,4.1,0.6,5.5,1.7c1.4,1.1,2.1,2.8,2.1,5c0,2.1-0.5,3.9-1.6,5.3
				c-1.1,1.4-2.7,2.5-4.7,3.2c-2,0.7-4.4,1.1-7.1,1.1H896.6z M901.7,432.3h10c2.8,0,4.9-0.5,6.4-1.5c1.5-1,2.3-2.5,2.3-4.5
				c0-1.6-0.6-2.6-1.7-3.3c-1.1-0.6-2.7-0.9-4.7-0.9h-11l0.7-3.6h9.7c1.6,0,3-0.2,4.2-0.7c1.2-0.4,2.2-1.1,2.8-2c0.7-0.9,1-2,1-3.3
				c0-1.3-0.5-2.3-1.6-3c-1.1-0.6-2.5-0.9-4.5-0.9h-9L901.7,432.3z"/>
			<path class="st0" d="M953.4,435.8l6.2-30.8H971c3.6,0,6.4,0.8,8.4,2.4c2,1.6,3,3.8,3,6.6c0,2.6-0.6,4.8-1.7,6.6
				c-1.2,1.8-2.8,3.3-5,4.2c-2.2,1-4.7,1.5-7.7,1.5h-10.1l2.2-2l-2.2,11.4H953.4z M960,424.9l-1.5-2.2h9.5c3.1,0,5.6-0.7,7.3-2.1
				c1.7-1.4,2.6-3.4,2.6-6.1c0-1.8-0.6-3.2-1.9-4.2c-1.3-0.9-3.1-1.4-5.4-1.4h-9.2l2.2-2.2L960,424.9z M974.1,435.8l-6.3-11.2h4.7
				l6.3,11.2H974.1z"/>
			<path class="st0" d="M1008.9,435.8l6.2-30.8h4.4l-6.2,30.8H1008.9z"/>
			<path class="st0" d="M1046.1,435.8l6.2-30.8h3.6l14.8,25.4l-1.3-0.2l5-25.2h4.4l-6.2,30.8h-3.6l-14.8-25.4l1.3,0.2l-5,25.2
				H1046.1z"/>
			<path class="st0" d="M1105.4,435.8l6.2-30.8h12c3.1,0,5.8,0.5,8,1.6c2.2,1,3.9,2.5,5,4.4c1.2,1.9,1.7,4.1,1.7,6.7
				c0,2.7-0.5,5.2-1.4,7.4c-0.9,2.2-2.2,4.2-3.9,5.8c-1.7,1.6-3.7,2.8-6,3.7c-2.3,0.9-5,1.3-7.9,1.3H1105.4z M1110.6,432h8.7
				c3,0,5.7-0.6,7.8-1.8c2.2-1.2,3.8-2.9,5-5c1.2-2.1,1.8-4.5,1.8-7.2c0-1.8-0.4-3.4-1.2-4.8c-0.8-1.4-2-2.4-3.6-3.1
				c-1.6-0.7-3.6-1.1-6-1.1h-8L1110.6,432z"/>
			<path class="st0" d="M1165.3,435.8l6.2-30.8h4.4l-6.2,30.8H1165.3z"/>
			<path class="st0" d="M1212,436.2c-1.6,0-3.1-0.2-4.5-0.5c-1.5-0.3-2.8-0.8-4-1.3c-1.2-0.6-2.2-1.2-2.9-1.9l1.9-3.5
				c0.8,0.7,1.7,1.3,2.8,1.8s2.2,0.9,3.4,1.2c1.2,0.3,2.5,0.4,3.8,0.4c1.6,0,3.1-0.2,4.3-0.6c1.3-0.4,2.2-1,2.9-1.8
				c0.7-0.8,1-1.7,1-2.8c0-0.9-0.3-1.7-0.9-2.2c-0.6-0.6-1.3-1.1-2.3-1.4c-0.9-0.4-1.9-0.7-3.1-1c-1.1-0.3-2.3-0.7-3.4-1.1
				c-1.1-0.4-2.2-0.9-3.1-1.5c-0.9-0.6-1.7-1.3-2.2-2.3c-0.6-0.9-0.9-2.1-0.9-3.5c0-2,0.5-3.7,1.6-5.1c1.1-1.4,2.6-2.5,4.5-3.3
				c1.9-0.8,4.1-1.2,6.7-1.2c1.9,0,3.7,0.2,5.4,0.7c1.7,0.4,3.2,1.1,4.4,1.9l-1.8,3.6c-1.1-0.8-2.4-1.4-3.9-1.8
				c-1.4-0.4-2.9-0.6-4.5-0.6c-1.7,0-3.1,0.2-4.3,0.7c-1.2,0.4-2.2,1.1-2.9,1.9c-0.7,0.8-1,1.8-1.1,2.8c0,0.9,0.3,1.7,0.8,2.3
				c0.6,0.6,1.3,1.1,2.2,1.4c0.9,0.4,2,0.7,3.1,1.1c1.1,0.3,2.2,0.7,3.4,1.1c1.1,0.4,2.1,0.8,3.1,1.4c1,0.6,1.7,1.3,2.3,2.2
				c0.6,0.9,0.9,2,0.9,3.3c0,2-0.5,3.7-1.6,5.1s-2.6,2.6-4.6,3.3C1216.8,435.8,1214.6,436.2,1212,436.2z"/>
		</g>
	</g>
	<polygon class="st0" points="353.8,414 353.8,426 256,420 	"/>
	<polygon class="st0" points="1270.1,426 1270.1,414 1368,420 	"/>
</g>
</svg>
